Hottest scene tracker on net :    http://www.scenetime.com
             
 

 Join now and support  scenetime.com  to grow faster
 
 Credit to EVERYONE for sharing and seeding back
 especially to scenetime.com where i get all my 
 downloads.



...................................NFO:.................................................                                         
                                                                               
                                                                                
                                                              
                                                                           
                                                                           
                                                   
                                                                             
                                                                               
                                                  
                                                               
                                                         
                                                                                  
                                                                           
                                                                     
                                                                  
                                                                       
                                                                           
                                                                           
                                                                   
                                                               
                                                                 
                                           
                                                        
                                                               
                           _        _______          
                          ( (    /|(  ____ )|     /|
                          |    ( || (    )|| )   ( |
                          |    | || (____)|| | _ | |
                          | ( ) ||  _____)| |( )| |
                          | |    || (      | || || |
                          | )    || )      | () () |
                          |/    )_)|/       (_______)

 

                               _________ ______            ______  
             |     /||     /|__   __/(  __   |     /|(  __   
             (    / )| )   ( |   ) (   | (    )| )   ( || (    )
               (_) / | |   | |   | |   | |   ) || (___) || |   ) |
               ) _ (  ( (   ) )   | |   | |   | ||  ___  || |   | |
              / ( )    _/ /    | |   | |   ) || (   ) || |   ) |
             ( /    )     /  ___) (___| (__/  )| )   ( || (__/  )
             |/     |   _/   _______/(______/ |/     |(______/ 
                                                                   
                       ______   _______  _______  _______ 
                      / ___   / ___   )(  __   )(  ____ )
                      /   )  )/   )  || (  )  || (    )|
                          /  /     /   )| | /   || (____)|
                         /  /    _/   / | (/ /) ||  _____)
                        /  /    /   _/  |   / | || (      
                       /  /    (   (__/|  (__) || )      
                       _/     _______/(_______)|/       
                       
           
-==Our releases are True HD Xvid in 5.1 sound and work on computers, Xbox 360, PS3, WDHD TV and some upscaling dvd players.==-


Source: UFC.120.Bisping.vs.Akiyama.720p.HDTV.x264-BOV

Format                           : MPEG-4
Format profile                   : Base Media
Codec ID                         : isom
File size                        : 3.04 GiB
Duration                         : 2h 37mn
Overall bit rate                 : 2 772 Kbps
Movie name                       : bov-ufc120.720p.mp4
Performer                        : Avidemux
Writing application              : Lavf52.61.0

Video
ID                               : 1
Format                           : AVC
Format/Info                      : Advanced Video Codec
Format profile                   : High@L3.1
Format settings, CABAC           : Yes
Format settings, ReFrames        : 3 frames
Codec ID                         : avc1
Codec ID/Info                    : Advanced Video Coding
Duration                         : 2h 37mn
Bit rate mode                    : Variable
Bit rate                         : 2 600 Kbps
Width                            : 1 280 pixels
Height                           : 720 pixels
Display aspect ratio             : 16:9
Frame rate mode                  : Constant
Frame rate                       : 25.000 fps
Resolution                       : 24 bits
Colorimetry                      : 4:2:0
Scan type                        : Progressive
Bits/(Pixel*Frame)               : 0.113
Stream size                      : 2.85 GiB (94%)
Writing library                  : x264 core 98 Ubuntu_2:0.98.1653+git88b90d9-3
Encoding settings                : cabac=1 / ref=3 / deblock=1:0:0 / analyse=0x3:0x113 / me=hex /  subme=7 / psy=1 / psy_rd=1.00:0.00 / mixed_ref=1 / me_range=16 / chroma_me=1 / trellis=1 / 8x8dct=1 /  cqm=0 / deadzone=21,11 / fast_pskip=1 / chroma_qp_offset=-2 / threads=3 / sliced_threads=0 / nr=0 /  decimate=1 / interlaced=0 / constrained_intra=0 / bframes=3 / b_pyramid=1 / b_adapt=1 / b_bias=0 /  direct=1 / weightb=1 / weightp=2 / keyint=250 / keyint_min=25 / scenecut=40 / intra_refresh=0 /  rc_lookahead=40 / rc=2pass / mbtree=1 / bitrate=2600 / ratetol=1.0 / qcomp=0.60 / qpmin=10 / qpmax=51  / qpstep=4 / cplxblur=20.0 / qblur=0.5 / ip_ratio=1.40 / aq=1:1.00

Audio
ID                               : 2
Format                           : AAC
Format/Info                      : Advanced Audio Codec
Format version                   : Version 4
Format profile                   : LC
Format settings, SBR             : No
Codec ID                         : 40
Duration                         : 2h 37mn
Bit rate mode                    : Variable
Bit rate                         : 165 Kbps
Channel(s)                       : 2 channels
Channel positions                : L R
Sampling rate                    : 48.0 KHz
Resolution                       : 16 bits
Stream size                      : 186 MiB (6%)

Fight Card:

Michael Bisping vs Yoshihiro Akiyama
Dan Hardy vs Carlos Condit
John Hathaway vs Mike Pyle
Cheick Kongo vs Travis Browne
James Wilkes vs Claude Patrick
Paul Sass vs Mark Holst (at end)